<svg width="68" height="73" viewBox="0 0 68 73" fill="none" xmlns="http://www.w3.org/2000/svg">
<path d="M21.5417 34.624V44.416H23.6057C24.1817 43.048 25.4537 42.136 27.2057 42.136C29.7257 42.136 30.9977 43.576 30.9977 46.048C30.9977 48.424 29.8217 50.2 27.1817 50.2C25.1417 50.2 23.7257 49.12 23.3177 47.296H21.1817C21.6137 50.104 23.7017 52.048 27.1577 52.048C31.2137 52.048 33.0857 49.36 33.0857 46C33.0857 43.312 31.7417 40.264 27.5177 40.264C25.8137 40.264 24.2777 41.032 23.5577 42.016V36.544H31.9817V34.624H21.5417ZM35.988 43.144C35.988 48.184 37.236 52 42.036 52C46.812 52 48.06 48.184 48.06 43.144C48.06 38.176 46.812 34.384 42.036 34.384C37.236 34.384 35.988 38.176 35.988 43.144ZM45.9 43.144C45.9 46.888 45.444 50.008 42.036 50.008C38.604 50.008 38.148 46.888 38.148 43.144C38.148 39.544 38.604 36.376 42.036 36.376C45.444 36.376 45.9 39.544 45.9 43.144Z" fill="#4B2A63"/>
<path d="M14.875 0C15.4386 0 15.9791 0.240345 16.3776 0.668163C16.7761 1.09598 17 1.67622 17 2.28125V4.5625H51V2.28125C51 1.67622 51.2239 1.09598 51.6224 0.668163C52.0209 0.240345 52.5614 0 53.125 0C53.6886 0 54.2291 0.240345 54.6276 0.668163C55.0261 1.09598 55.25 1.67622 55.25 2.28125V4.5625H59.5C61.7543 4.5625 63.9163 5.52388 65.5104 7.23515C67.1045 8.94642 68 11.2674 68 13.6875V63.875C68 66.2951 67.1045 68.6161 65.5104 70.3273C63.9163 72.0386 61.7543 73 59.5 73H8.5C6.24566 73 4.08365 72.0386 2.48959 70.3273C0.895533 68.6161 0 66.2951 0 63.875V13.6875C0 11.2674 0.895533 8.94642 2.48959 7.23515C4.08365 5.52388 6.24566 4.5625 8.5 4.5625H12.75V2.28125C12.75 1.67622 12.9739 1.09598 13.3724 0.668163C13.7709 0.240345 14.3114 0 14.875 0V0ZM4.25 18.25V63.875C4.25 65.0851 4.69777 66.2455 5.4948 67.1012C6.29183 67.9568 7.37283 68.4375 8.5 68.4375H59.5C60.6272 68.4375 61.7082 67.9568 62.5052 67.1012C63.3022 66.2455 63.75 65.0851 63.75 63.875V18.25H4.25Z" fill="#4B2A63"/>
</svg>
