<svg width="47" height="47" viewBox="0 0 47 47" fill="none" xmlns="http://www.w3.org/2000/svg">
<rect width="47" height="47" rx="6" fill="#E5E5E5" fill-opacity="0.38"/>
<rect width="34" height="34" transform="translate(6 6)" fill="white" fill-opacity="0.69"/>
<path d="M22.9986 16.4507C21.2613 16.4507 19.5951 17.1408 18.3666 18.3693C17.1381 19.5978 16.4479 21.264 16.4479 23.0013C16.4479 24.7387 17.1381 26.4049 18.3666 27.6334C19.5951 28.8619 21.2613 29.552 22.9986 29.552C24.7359 29.552 26.4021 28.8619 27.6306 27.6334C28.8591 26.4049 29.5493 24.7387 29.5493 23.0013C29.5493 21.264 28.8591 19.5978 27.6306 18.3693C26.4021 17.1408 24.7359 16.4507 22.9986 16.4507ZM22.9986 27.2556C21.8699 27.2556 20.7875 26.8072 19.9894 26.0091C19.1913 25.2111 18.7429 24.1286 18.7429 22.9999C18.7429 21.8713 19.1913 20.7888 19.9894 19.9907C20.7875 19.1926 21.8699 18.7443 22.9986 18.7443C24.1273 18.7443 25.2097 19.1926 26.0078 19.9907C26.8059 20.7888 27.2543 21.8713 27.2543 22.9999C27.2543 24.1286 26.8059 25.2111 26.0078 26.0091C25.2097 26.8072 24.1273 27.2556 22.9986 27.2556Z" fill="black"/>
<path d="M29.8085 17.737C30.6519 17.737 31.3357 17.0532 31.3357 16.2098C31.3357 15.3664 30.6519 14.6826 29.8085 14.6826C28.9651 14.6826 28.2813 15.3664 28.2813 16.2098C28.2813 17.0532 28.9651 17.737 29.8085 17.737Z" fill="black"/>
<path d="M35.0884 14.6575C34.7605 13.8106 34.2593 13.0415 33.617 12.3994C32.9747 11.7573 32.2054 11.2565 31.3583 10.9288C30.3671 10.5567 29.32 10.3556 28.2615 10.3338C26.8973 10.2743 26.4652 10.2573 23.0057 10.2573C19.5462 10.2573 19.1028 10.2573 17.7498 10.3338C16.6921 10.3544 15.6457 10.5557 14.6558 10.9288C13.8086 11.2561 13.0391 11.7568 12.3967 12.3989C11.7544 13.0411 11.2533 13.8104 10.9258 14.6575C10.5536 15.6486 10.3529 16.6958 10.3322 17.7543C10.2713 19.1172 10.2528 19.5492 10.2528 23.0102C10.2528 26.4697 10.2528 26.9102 10.3322 28.266C10.3534 29.3257 10.5532 30.3712 10.9258 31.3642C11.2542 32.2111 11.7558 32.9801 12.3983 33.6221C13.0408 34.2641 13.8102 34.7651 14.6573 35.0929C15.6453 35.4799 16.6921 35.6955 17.7527 35.7304C19.1169 35.7899 19.549 35.8083 23.0085 35.8083C26.468 35.8083 26.9114 35.8083 28.2643 35.7304C29.3227 35.7089 30.3698 35.5082 31.3612 35.1368C32.208 34.8084 32.9771 34.3071 33.6193 33.6649C34.2615 33.0226 34.7629 32.2536 35.0913 31.4067C35.4638 30.4151 35.6636 29.3696 35.6848 28.3099C35.7458 26.9471 35.7642 26.515 35.7642 23.0541C35.7642 19.5932 35.7642 19.154 35.6848 17.7982C35.6683 16.7248 35.4666 15.6623 35.0884 14.6575ZM33.3629 28.1612C33.3538 28.9776 33.2048 29.7864 32.9223 30.5525C32.7096 31.1034 32.3839 31.6037 31.9662 32.0211C31.5485 32.4386 31.048 32.764 30.497 32.9764C29.7394 33.2575 28.9392 33.4066 28.1312 33.417C26.7853 33.4793 26.4057 33.4949 22.9547 33.4949C19.5008 33.4949 19.1481 33.4949 17.7768 33.417C16.9692 33.4071 16.1693 33.2581 15.4123 32.9764C14.8594 32.7653 14.3569 32.4405 13.9374 32.0229C13.5179 31.6054 13.1908 31.1044 12.9771 30.5525C12.6986 29.7946 12.5497 28.9953 12.5365 28.1881C12.4756 26.8422 12.4614 26.4626 12.4614 23.0116C12.4614 19.5592 12.4614 19.2064 12.5365 17.8337C12.5457 17.0177 12.6947 16.2093 12.9771 15.4437C13.4092 14.326 14.2946 13.4462 15.4123 13.0184C16.1697 12.7381 16.9693 12.5891 17.7768 12.5778C19.124 12.5169 19.5023 12.4999 22.9547 12.4999C26.4071 12.4999 26.7613 12.4999 28.1312 12.5778C28.9393 12.5875 29.7396 12.7366 30.497 13.0184C31.048 13.2313 31.5484 13.557 31.966 13.9747C32.3837 14.3924 32.7095 14.8928 32.9223 15.4437C33.2008 16.2016 33.3497 17.0009 33.3629 17.8082C33.4238 19.1554 33.4394 19.5337 33.4394 22.9861C33.4394 26.4371 33.4394 26.8082 33.3785 28.1626H33.3629V28.1612Z" fill="black"/>
</svg>
