<svg width="47" height="47" viewBox="0 0 47 47" fill="none" xmlns="http://www.w3.org/2000/svg">
<rect width="47" height="47" rx="6" fill="#E5E5E5" fill-opacity="0.38"/>
<g clip-path="url(#clip0_804_6)">
<rect width="29" height="29" transform="translate(9 9)" fill="white" fill-opacity="0.69"/>
<path d="M14.686 9.00732C11.5623 9.00732 9.00562 11.5639 9.00562 14.6878V32.3151C9.00562 35.4389 11.5622 37.9946 14.686 37.9946H32.3134C35.4373 37.9946 37.9929 35.439 37.9929 32.3151V14.6878C37.9929 11.564 35.4373 9.00732 32.3134 9.00732H14.686ZM16.1148 13.7908C17.6126 13.7908 18.5351 14.7741 18.5636 16.0666C18.5636 17.3306 17.6125 18.3415 16.0858 18.3415H16.0577C14.5884 18.3415 13.6387 17.3306 13.6387 16.0666C13.6387 14.7741 14.6171 13.7908 16.1147 13.7908H16.1148ZM29.0221 19.8318C31.9026 19.8318 34.062 21.7145 34.062 25.7604V33.3135H29.6844V26.2668C29.6844 24.4961 29.0508 23.288 27.4666 23.288C26.2571 23.288 25.5363 24.1023 25.2197 24.8889C25.1041 25.1703 25.0757 25.5633 25.0757 25.957V33.3135H20.6981C20.6981 33.3135 20.7555 21.3767 20.6981 20.1407H25.0766V22.0061C25.6583 21.1086 26.6989 19.8318 29.0221 19.8318V19.8318ZM13.897 20.1417H18.2746V33.3135H13.897V20.1417Z" fill="black"/>
</g>
<defs>
<clipPath id="clip0_804_6">
<rect width="29" height="29" fill="white" transform="translate(9 9)"/>
</clipPath>
</defs>
</svg>
