<svg width="47" height="47" viewBox="0 0 47 47" fill="none" xmlns="http://www.w3.org/2000/svg">
<rect width="47" height="47" rx="6" fill="#E5E5E5" fill-opacity="0.38"/>
<rect width="29" height="29" transform="translate(9 9)" fill="white" fill-opacity="0.69"/>
<path d="M37.5686 14.9655C36.5597 15.4126 35.4758 15.7147 34.3364 15.8512C35.5121 15.1477 36.3917 14.0405 36.811 12.7361C35.7064 13.3922 34.4975 13.8541 33.2368 14.1015C32.389 13.1963 31.2661 12.5963 30.0423 12.3947C28.8186 12.1931 27.5626 12.4012 26.4692 12.9865C25.3758 13.5719 24.5063 14.5019 23.9956 15.6321C23.485 16.7623 23.3617 18.0295 23.645 19.2369C21.4068 19.1246 19.2172 18.5428 17.2184 17.5295C15.2196 16.5161 13.4562 15.0938 12.0426 13.3548C11.5593 14.1885 11.2814 15.1552 11.2814 16.1847C11.2808 17.1115 11.509 18.0241 11.9458 18.8415C12.3825 19.6589 13.0143 20.3559 13.785 20.8706C12.8912 20.8422 12.0171 20.6007 11.2354 20.1662V20.2387C11.2354 21.5385 11.685 22.7984 12.508 23.8044C13.3311 24.8105 14.4769 25.5009 15.751 25.7583C14.9218 25.9827 14.0525 26.0158 13.2086 25.855C13.5681 26.9734 14.2684 27.9515 15.2113 28.6522C16.1543 29.3529 17.2927 29.7412 18.4673 29.7627C16.4734 31.328 14.0108 32.1771 11.4759 32.1734C11.0269 32.1735 10.5782 32.1473 10.1322 32.0948C12.7053 33.7492 15.7006 34.6273 18.7597 34.6239C29.1151 34.6239 34.7762 26.0471 34.7762 18.6086C34.7762 18.367 34.7701 18.1229 34.7593 17.8812C35.8604 17.0849 36.8109 16.0988 37.5662 14.9691L37.5686 14.9655Z" fill="black"/>
</svg>
