<svg width="47" height="47" viewBox="0 0 47 47" fill="none" xmlns="http://www.w3.org/2000/svg">
<rect width="47" height="47" rx="6" fill="#E5E5E5" fill-opacity="0.38"/>
<rect width="29" height="29" transform="translate(10 10)" fill="white" fill-opacity="0.69"/>
<path d="M36.6579 18.3856C36.5135 17.8477 36.2302 17.3571 35.8366 16.9629C35.443 16.5688 34.9527 16.285 34.4149 16.1398C32.4354 15.6074 24.5 15.6074 24.5 15.6074C24.5 15.6074 16.5646 15.6074 14.5851 16.137C14.047 16.2817 13.5565 16.5653 13.1628 16.9595C12.7691 17.3537 12.4861 17.8446 12.3421 18.3828C11.8125 20.3652 11.8125 24.5 11.8125 24.5C11.8125 24.5 11.8125 28.6348 12.3421 30.6144C12.6338 31.7075 13.4947 32.5685 14.5851 32.8602C16.5646 33.3926 24.5 33.3926 24.5 33.3926C24.5 33.3926 32.4354 33.3926 34.4149 32.8602C35.5081 32.5685 36.3662 31.7075 36.6579 30.6144C37.1875 28.6348 37.1875 24.5 37.1875 24.5C37.1875 24.5 37.1875 20.3652 36.6579 18.3856ZM21.9795 28.2949V20.7051L28.5498 24.4717L21.9795 28.2949Z" fill="black"/>
</svg>
